<svg width="510" height="720" viewBox="0 0 510 720" fill="none" xmlns="http://www.w3.org/2000/svg">
<path d="M365.22 718.381L497.953 -15.619C500.061 -27.2767 491.103 -38 479.256 -38H45C34.5066 -38 26 -29.4934 26 -19V715C26 725.493 34.5066 734 45 734H346.523C355.713 734 363.585 727.424 365.22 718.381Z" fill="#27C1F3"/>
<path d="M297.202 809.596L504.781 -56.3118C507.511 -67.6972 499.32 -79.0901 487.611 -80.1953L0.0765599 -126.214C-10.3704 -127.201 -19.4073 -119.512 -20.108 -109.042L-78.9927 770.901C-79.6934 781.371 -71.7924 790.658 -61.3455 791.644L277.495 823.628C286.723 824.499 295.051 818.569 297.202 809.596Z" fill="#D1E8F0" fill-opacity="0.13"/>
<path d="M283.56 780.466L483.325 -45.5337C486.216 -57.4896 477.158 -69 464.857 -69H-17C-27.4934 -69 -36 -60.4934 -36 -50V776C-36 786.493 -27.4934 795 -17 795H265.092C273.865 795 281.497 788.993 283.56 780.466Z" fill="#41C9F5"/>
</svg>
