<svg width="360" height="269" viewBox="0 0 360 269" fill="none" xmlns="http://www.w3.org/2000/svg">
<path d="M275.996 236.352L359.006 2.35233C363.393 -10.0146 354.222 -23 341.1 -23H58C47.5066 -23 39 -14.4934 39 -4V230C39 240.493 47.5066 249 58 249H258.089C266.133 249 273.306 243.934 275.996 236.352Z" fill="#27C1F3"/>
<path d="M172.093 255.599L250.415 1.59858C254.183 -10.6217 245.047 -23 232.259 -23H-30C-40.4934 -23 -49 -14.4934 -49 -4V250C-49 260.493 -40.4934 269 -30 269H153.937C162.274 269 169.637 263.565 172.093 255.599Z" fill="#D1E8F0" fill-opacity="0.13"/>
<path d="M169.377 249.088L271.51 -4.91169C276.53 -17.3967 267.338 -31 253.882 -31H6C-4.49341 -31 -13 -22.4934 -13 -12V242C-13 252.493 -4.49339 261 6.00002 261H151.748C159.505 261 166.483 256.285 169.377 249.088Z" fill="#41C9F5"/>
</svg>
