<svg width="768" height="531" viewBox="0 0 768 531" fill="none" xmlns="http://www.w3.org/2000/svg">
<rect x="406" y="-5" width="405" height="62" rx="31" fill="#27C1F3"/>
<path d="M430.482 451.992L577.695 8.99172C581.782 -3.30816 572.626 -16 559.664 -16H60C49.5066 -16 41 -7.49342 41 2.99999V446C41 456.493 49.5066 465 60 465H412.451C420.636 465 427.901 459.759 430.482 451.992Z" fill="#27C1F3"/>
<path d="M353.34 508.753L584.434 -16.7419C589.683 -28.6778 582.062 -41.4368 569.29 -42.0961L8.94199 -71.0205C-1.53747 -71.5615 -11.066 -63.5564 -12.3406 -53.1407L-77.6922 480.91C-78.9668 491.325 -71.5047 500.207 -61.0253 500.748L333.581 521.118C341.906 521.547 349.919 516.533 353.34 508.753Z" fill="#D1E8F0" fill-opacity="0.13"/>
<path d="M337.812 491.719L560.12 -8.28087C565.707 -20.8456 556.51 -35 542.759 -35H-10C-20.4934 -35 -29 -26.4934 -29 -16V484C-29 494.493 -20.4934 503 -9.99999 503H320.45C327.958 503 334.762 498.579 337.812 491.719Z" fill="#41C9F5"/>
</svg>
